<svg width="837" height="278" viewBox="0 0 837 278" fill="none" xmlns="http://www.w3.org/2000/svg">
<path d="M393.273 255.618L330 84.0969H362.473L414.285 233.701H409.032L460.844 84.0969H491.645L428.611 255.618H393.273Z" fill="white"/>
<path d="M511.158 255.618V134.124H541.243V255.618H511.158ZM509.726 114.113V81H542.437V114.113H509.726Z" fill="white"/>
<path d="M642.662 258C631.042 258 621.492 255.3 614.01 249.9C606.688 244.342 602.152 236.719 600.401 227.031L602.549 226.793V255.618H573.181V84.0969H603.266V161.52L601.117 161.043C603.186 151.991 608.041 144.844 615.682 139.603C623.481 134.362 633.112 131.742 644.572 131.742C655.396 131.742 664.788 134.362 672.747 139.603C680.865 144.685 687.152 151.911 691.609 161.281C696.066 170.651 698.294 181.689 698.294 194.394C698.294 207.258 695.986 218.455 691.37 227.984C686.754 237.513 680.307 244.898 672.03 250.139C663.753 255.38 653.964 258 642.662 258ZM635.022 233.225C644.731 233.225 652.452 229.89 658.182 223.219C663.912 216.39 666.777 206.861 666.777 194.633C666.777 182.404 663.833 172.954 657.943 166.284C652.213 159.614 644.493 156.279 634.783 156.279C625.232 156.279 617.512 159.693 611.623 166.522C605.733 173.192 602.788 182.642 602.788 194.871C602.788 207.1 605.733 216.549 611.623 223.219C617.512 229.89 625.312 233.225 635.022 233.225Z" fill="white"/>
<path d="M777.787 258C764.893 258 753.592 255.3 743.882 249.9C734.331 244.501 726.85 237.036 721.438 227.507C716.185 217.978 713.559 207.02 713.559 194.633C713.559 182.245 716.185 171.366 721.438 161.996C726.85 152.467 734.331 145.082 743.882 139.841C753.433 134.441 764.575 131.742 777.309 131.742C789.407 131.742 799.912 134.283 808.826 139.365C817.74 144.288 824.664 151.276 829.599 160.328C834.533 169.381 837 179.942 837 192.012C837 194.236 836.921 196.3 836.762 198.206C836.603 200.112 836.364 202.017 836.045 203.923H732.182V182.96H812.885L806.677 188.677C806.677 177.242 804.051 168.666 798.798 162.949C793.545 157.231 786.223 154.373 776.832 154.373C766.644 154.373 758.526 157.867 752.477 164.855C746.588 171.843 743.643 181.927 743.643 195.109C743.643 208.132 746.588 218.137 752.477 225.125C758.526 231.954 767.042 235.369 778.025 235.369C784.392 235.369 789.964 234.178 794.739 231.795C799.514 229.413 803.016 225.76 805.245 220.837H833.658C829.678 232.272 822.913 241.324 813.363 247.995C803.971 254.665 792.113 258 777.787 258Z" fill="white"/>
<path d="M139 278.001L0.000146508 139L69.4996 69.5009L139 139.002L208.501 69.5009L278.001 139L139 278.001Z" fill="url(#paint0_linear_2001_2)"/>
<defs>
<linearGradient id="paint0_linear_2001_2" x1="208.501" y1="69.5002" x2="69.5003" y2="208.501" gradientUnits="userSpaceOnUse">
<stop stop-color="#FF2056"/>
<stop offset="1" stop-color="#F6339A"/>
</linearGradient>
</defs>
</svg>
