<svg width="287" height="286" viewBox="0 0 287 286" fill="none" xmlns="http://www.w3.org/2000/svg">
<path fill-rule="evenodd" clip-rule="evenodd" d="M236.353 26.9176H50.6471C37.5936 26.9176 27.0118 37.4627 27.0118 50.4706V235.529C27.0118 248.537 37.5936 259.082 50.6471 259.082H236.353C249.406 259.082 259.988 248.537 259.988 235.529V50.4706C259.988 37.4627 249.406 26.9176 236.353 26.9176ZM50.6471 0C22.6755 0 0 22.5964 0 50.4706V235.529C0 263.404 22.6755 286 50.6471 286H236.353C264.325 286 287 263.404 287 235.529V50.4706C287 22.5965 264.325 0 236.353 0H50.6471Z" fill="#0C0F13"/>
<path d="M62.4225 107.334V86.515H148.583V107.334H117.267V199.485H93.5728V107.334H62.4225Z" fill="#0C0F13"/>
<path d="M189.174 144.291H153.384V125.248H225.295L184.369 180.441H220.49V199.485H146.922L189.174 144.291Z" fill="#0C0F13"/>
</svg>
